<svg width="128" height="128" viewBox="0 0 256 256" fill="none" xmlns="http://www.w3.org/2000/svg" style="font-size: 128px;">
<g id="å•é¢æ€§_10740924852.å¢žåŠ&nbsp;" clip-path="url(#clip0_11_128474)">
<g id="Group">
<g id="Group_2">
<g id="Group_3">
<path id="Vector" d="M118.857 118.857H73.1429C68.0934 118.857 64 122.951 64 128C64 133.049 68.0934 137.143 73.1429 137.143H118.857V182.857C118.857 187.906 122.951 192 128 192C133.049 192 137.143 187.906 137.143 182.857V137.143H182.857C187.906 137.143 192 133.049 192 128C192 122.951 187.906 118.857 182.857 118.857H137.143V73.1429C137.143 68.0934 133.049 64 128 64C122.951 64 118.857 68.0934 118.857 73.1429V118.857ZM128 256C57.3075 256 0 198.693 0 128C0 57.3075 57.3075 0 128 0C198.693 0 256 57.3075 256 128C256 198.693 198.693 256 128 256Z" fill="#333333"></path>
</g>
</g>
</g>
</g>
<defs>
<clipPath id="clip0_11_128474">
<rect width="256" height="256" fill="white"></rect>
</clipPath>
</defs>
</svg>