<svg width="128" height="128" viewBox="0 0 256 256" fill="none" xmlns="http://www.w3.org/2000/svg" style="font-size: 128px;">
<g id="å•çº¿é¢_10741937250.å®¢æˆ·ç­›é€‰" clip-path="url(#clip0_7_6223)">
<g id="Group">
<g id="Group_2">
<g id="Group_3">
<path id="Vector" d="M9.23508 18.7842H182.885C187.911 18.7842 192.024 22.8969 192.024 27.9236C192.024 29.7515 191.566 31.5794 190.196 33.4073L132.618 114.748V228.077C132.618 233.104 128.505 237.216 123.478 237.216C122.107 237.216 120.736 236.759 119.366 236.302L64.5286 208.884C61.3298 207.513 59.5019 204.314 59.5019 200.659V114.748L1.92354 33.4073C-1.27526 29.2945 -0.361319 23.3539 3.75142 20.6121C5.12234 19.2412 6.95022 18.7842 9.23508 18.7842ZM175.572 146.736C171.917 146.736 169.175 143.537 169.175 139.882C169.175 136.226 171.917 133.027 175.572 133.027H249.602C253.257 133.027 256 136.226 256 139.882C256 143.537 253.257 146.736 249.602 146.736H175.572ZM175.572 178.724C171.917 178.724 169.175 175.525 169.175 171.87C169.175 168.214 171.917 165.015 175.572 165.015H249.602C253.257 165.015 256 168.214 256 171.87C256 175.525 253.257 178.724 249.602 178.724H175.572ZM175.572 210.712C171.917 210.712 169.175 207.513 169.175 203.858C169.175 200.202 171.917 197.003 175.572 197.003H249.602C253.257 197.003 256 200.202 256 203.858C256 207.513 253.257 210.712 249.602 210.712H175.572Z" fill="#333333"></path>
</g>
</g>
</g>
</g>
<defs>
<clipPath id="clip0_7_6223">
<rect width="256" height="256" fill="white"></rect>
</clipPath>
</defs>
</svg>