<svg width="128" height="128" viewBox="0 0 256 256" fill="none" xmlns="http://www.w3.org/2000/svg" style="font-size: 128px;">
<g id="å•çº¿å¡«å……_10758987582.å¿ƒ" clip-path="url(#clip0_1_109879)">
<g id="Group">
<g id="Group_2">
<path id="Vector" d="M128.65 236.055L125.206 232.589C99.9252 207.19 82.1391 191.05 55.0773 173.322C20.7304 150.817 1.67234 121.247 1.40253 90.0497C1.37959 87.3691 3.53184 85.1761 6.21247 85.1489H6.25377C8.92476 85.1458 11.0976 87.2989 11.1188 89.9698C11.3556 117.822 28.858 144.537 60.4021 165.2C86.9243 182.573 104.68 198.374 128.65 222.297C152.62 198.374 170.376 182.573 196.898 165.2C232.53 141.858 250.215 110.663 245.438 79.6121C241.859 56.4241 225.832 37.5698 204.577 31.5814C180.51 24.8002 154.159 35.6755 132.361 61.4543L128.65 65.843L124.939 61.4543C103.576 36.1849 77.6981 25.1856 53.9457 31.2538C52.2519 31.7202 50.4384 31.2359 49.2024 29.9876C47.9665 28.739 47.5006 26.9207 47.9838 25.2316C48.4673 23.5428 49.8247 22.246 51.5339 21.8404C77.6403 15.1693 105.481 25.7638 128.65 50.9699C152.303 25.2187 180.667 14.7673 207.214 22.2396C232.123 29.2467 250.897 51.1929 255.047 78.1308C260.427 113.111 241.17 147.802 202.223 173.319C175.164 191.053 157.366 207.193 132.094 232.589L128.65 236.055Z" fill="#333333"></path>
</g>
<g id="Group_3">
<path id="Vector_2" d="M229.67 108.532C229.231 108.531 228.794 108.472 228.37 108.356C227.128 108.014 226.073 107.192 225.437 106.071C224.802 104.95 224.639 103.623 224.984 102.381C226.803 95.9368 227.228 89.1789 226.231 82.5576C223.819 66.864 213.25 54.199 199.304 50.2784C196.289 49.4268 193.17 48.9943 190.037 48.9926C187.399 48.9298 185.293 46.7732 185.293 44.1345C185.293 41.4958 187.399 39.3391 190.037 39.2764C194.06 39.2802 198.064 39.8361 201.936 40.9283C219.541 45.8842 232.845 61.6521 235.835 81.0819C237.041 89.0578 236.534 97.1992 234.348 104.964C233.767 107.069 231.854 108.529 229.67 108.532Z" fill="#333333"></path>
</g>
<g id="Group_4">
<path id="Vector_3" d="M26.1325 47.9085C24.2983 47.9055 22.6221 46.8697 21.7986 45.231C20.9751 43.592 21.1445 41.6289 22.2367 40.1553L28.0185 32.3498C29.0298 30.8978 30.7506 30.1106 32.5102 30.2951C34.2701 30.4796 35.7904 31.6065 36.4785 33.2364C37.1665 34.8666 36.9138 36.7421 35.8185 38.1317L30.0367 45.9372C29.1231 47.1781 27.6735 47.9099 26.1325 47.9085Z" fill="#333333"></path>
</g>
<g id="Group_5">
<path id="Vector_4" d="M12.5443 49.929C11.5035 49.9288 10.4906 49.5929 9.65611 48.9709L1.85062 43.1891C-0.212094 41.5633 -0.608701 38.5922 0.955288 36.4824C2.51928 34.3726 5.47722 33.8883 7.63247 35.3891L15.438 41.1709C17.1213 42.419 17.8143 44.6062 17.1568 46.5959C16.4993 48.5857 14.6398 49.9296 12.5443 49.929Z" fill="#333333"></path>
</g>
<g id="Group_6">
<path id="Vector_5" d="M8.76934 71.3276C6.93512 71.3246 5.25891 70.2888 4.43535 68.6501C3.6118 67.0111 3.78126 65.048 4.87348 63.5745L10.6553 55.7717C11.6665 54.3197 13.3873 53.5325 15.147 53.717C16.9069 53.9014 18.4272 55.0283 19.1153 56.6583C19.8033 58.2885 19.5506 60.164 18.4553 61.5536L12.6735 69.3591C11.7595 70.5991 10.3098 71.3301 8.76934 71.3276Z" fill="#333333"></path>
</g>
<g id="Group_7">
<path id="Vector_6" d="M35.9476 67.2913C34.9061 67.2915 33.892 66.9554 33.0567 66.3331L25.2512 60.5513C23.7991 59.54 23.012 57.8192 23.1965 56.0596C23.3809 54.2997 24.5078 52.7794 26.1378 52.0913C27.768 51.4033 29.6435 51.656 31.0331 52.7513L38.8386 58.5331C40.5178 59.7828 41.2083 61.9673 40.5522 63.9548C39.8961 65.9427 38.0409 67.2868 35.9476 67.2913Z" fill="#333333"></path>
</g>
</g>
</g>
<defs>
<clipPath id="clip0_1_109879">
<rect width="256" height="256" fill="white"></rect>
</clipPath>
</defs>
</svg>