<svg xmlns="http://www.w3.org/2000/svg" xmlns:xlink="http://www.w3.org/1999/xlink" fill="none" version="1.1" width="128" height="128" viewBox="0 0 256 256" style="font-size: 128px;"><defs><clipPath id="master_svg0_1_664"><rect x="0" y="0" width="256" height="256" rx="0"></rect></clipPath></defs><g clip-path="url(#master_svg0_1_664)"><g><g><g><g><g><path d="M200.608,242.6670249786377L154.192,242.6670249786377C149.367,242.6670249786377,145.454,238.8930249786377,145.454,234.23502497863768L145.454,184.4710249786377L110.612,184.4710249786377L110.612,234.23502497863768C110.612,238.8930249786377,106.704,242.6670249786377,101.88,242.6670249786377L55.3914,242.6670249786377C50.5682,242.6670249786377,46.6585,238.8930249786377,46.6585,234.23502497863768L46.6585,136.72802497863768L8.73575,136.72802497863768C5.14481,136.72802497863768,1.91294,134.58702497863771,0.602407,131.3590249786377C-0.709728,128.1170249786377,0.164935,124.43902497863769,2.80441,122.0870249786377L122.068,15.568094978637696C125.42,12.587999978637695,130.587,12.587999978637695,133.939,15.568094978637696L253.196,122.0870249786377C255.835,124.43902497863769,256.71,128.1170249786377,255.398,131.3590249786377C254.087,134.58702497863771,250.855,136.72802497863768,247.264,136.72802497863768L209.342,136.72802497863768L209.342,234.23502497863768C209.342,238.8930249786377,205.432,242.6670249786377,200.608,242.6670249786377Z" fill-rule="evenodd" fill="#333333" fill-opacity="1" style="mix-blend-mode:passthrough"></path></g></g></g></g></g></g></svg>