<svg width="128" height="128" viewBox="0 0 256 256" fill="none" xmlns="http://www.w3.org/2000/svg" style="font-size: 128px;">
<g id="å•çº¿å¡«å……_10758958536.åœ°å›¾ä½ç½®" clip-path="url(#clip0_1_71279)">
<g id="Group">
<g id="Group_2">
<path id="Vector" d="M230.441 255.933H25.4956C19.2787 255.933 13.6345 253.038 10.0162 247.986C6.39192 242.94 5.46003 236.666 7.45535 230.782L34.9406 149.572C37.5516 141.832 44.8075 136.628 52.9809 136.628H82.5311C85.1986 136.628 87.3629 138.793 87.3629 141.461C87.3629 144.129 85.1986 146.293 82.5311 146.293H52.9809C48.954 146.293 45.3802 148.854 44.0964 152.668L16.6047 233.878C15.6231 236.778 16.0825 239.869 17.8692 242.354C19.6499 244.84 22.4315 246.268 25.4956 246.268H230.441C233.499 246.268 236.28 244.84 238.061 242.354C239.848 239.869 240.308 236.778 239.326 233.878L211.847 152.668C210.55 148.854 206.976 146.293 202.956 146.293H171.544C168.876 146.293 166.712 144.129 166.712 141.461C166.712 138.793 168.876 136.628 171.544 136.628H202.956C211.124 136.628 218.373 141.825 220.997 149.566L248.482 230.782C250.476 236.672 249.539 242.945 245.914 247.993C242.296 253.038 236.652 255.933 230.441 255.933Z" fill="#333333"></path>
</g>
<g id="Group_3">
<path id="Vector_2" d="M127.97 46.7718C113.196 46.7718 101.177 58.7968 101.177 73.5714C101.177 88.3469 113.196 100.365 127.97 100.365C142.745 100.365 154.764 88.3469 154.764 73.5714C154.764 58.7968 142.745 46.7718 127.97 46.7718ZM127.97 110.031C107.866 110.031 91.5117 93.6761 91.5117 73.5714C91.5117 53.4676 107.866 37.1072 127.97 37.1072C148.075 37.1072 164.429 53.4676 164.429 73.5714C164.429 93.6761 148.075 110.031 127.97 110.031Z" fill="#333333"></path>
</g>
<g id="Group_4">
<path id="Vector_3" d="M127.97 9.66504C92.9654 9.66504 64.4858 38.1451 64.4858 73.15C64.4858 122.923 114.039 177.574 127.807 191.787C141.379 176.497 191.449 117.109 191.449 73.15C191.449 38.1451 162.975 9.66504 127.97 9.66504ZM127.97 203.643C126.724 203.643 125.529 203.165 124.629 202.303C121.779 199.571 54.8203 134.74 54.8203 73.15C54.8203 32.8149 87.6362 -0.000549316 127.97 -0.000549316C168.299 -0.000549316 201.114 32.8149 201.114 73.15C201.114 127.573 134.332 199.106 131.488 202.127C130.607 203.064 129.386 203.605 128.096 203.643C128.052 203.643 128.015 203.643 127.97 203.643Z" fill="#333333"></path>
</g>
</g>
</g>
<defs>
<clipPath id="clip0_1_71279">
<rect width="256" height="256" fill="white"></rect>
</clipPath>
</defs>
</svg>