<svg width="128" height="128" viewBox="0 0 256 256" fill="none" xmlns="http://www.w3.org/2000/svg" style="font-size: 128px;">
<g id="å•çº¿é¢_10759020731.ç”¨æˆ·" clip-path="url(#clip0_9_216248)">
<g id="Group">
<g id="å›¾å±‚ 2">
<g id="å›¾å±‚ 1">
<path id="Vector" d="M238.107 255.999C239.769 256.017 241.416 255.675 242.933 254.994C244.45 254.313 245.801 253.31 246.892 252.056C247.983 250.801 248.788 249.324 249.251 247.728C249.715 246.131 249.826 244.452 249.576 242.809C245.924 213.137 231.547 185.825 209.153 166.019C186.759 146.212 157.895 135.279 128 135.279C98.1037 135.279 69.2399 146.212 46.8462 166.019C24.4526 185.825 10.0752 213.137 6.42285 242.809C6.17334 244.452 6.28421 246.131 6.74778 247.728C7.21135 249.324 8.01652 250.801 9.10752 252.056C10.1985 253.31 11.5493 254.313 13.0661 254.994C14.583 255.675 16.2298 256.017 17.8923 255.999H238.107Z" fill="#333333"></path>
<path id="Vector_2" d="M128.803 118.824C117.052 118.824 105.565 115.34 95.7951 108.811C86.0249 102.283 78.4099 93.0042 73.9131 82.148C69.4164 71.2919 68.2398 59.3461 70.5322 47.8213C72.8247 36.2965 78.4831 25.7103 86.792 17.4014C95.1009 9.09249 105.687 3.43404 117.212 1.14161C128.737 -1.15081 140.683 0.0257425 151.539 4.5225C162.395 9.01925 171.674 16.6342 178.202 26.4045C184.73 36.1748 188.215 47.6615 188.215 59.412C188.215 75.1691 181.955 90.2808 170.813 101.423C159.671 112.565 144.56 118.824 128.803 118.824ZM128.803 17.319C120.45 17.319 112.285 19.7974 105.341 24.4403C98.3979 29.0832 92.9881 35.682 89.7969 43.4011C86.6057 51.1203 85.7766 59.6127 87.4145 67.8033C89.0524 75.994 93.0837 83.5144 98.9981 89.4127C104.912 95.311 112.444 99.3218 120.639 100.937C128.834 102.553 137.324 101.701 145.035 98.4886C152.745 95.2764 159.329 89.8487 163.953 82.8926C168.577 75.9365 171.033 67.7648 171.01 59.412C171.01 53.8746 169.918 48.3916 167.795 43.2772C165.673 38.1627 162.562 33.5173 158.641 29.6071C154.72 25.6969 150.066 22.5988 144.946 20.4901C139.826 18.3815 134.34 17.3039 128.803 17.319Z" fill="#333333"></path>
</g>
</g>
</g>
</g>
<defs>
<clipPath id="clip0_9_216248">
<rect width="256" height="256" fill="white"></rect>
</clipPath>
</defs>
</svg>