<svg width="128" height="128" viewBox="0 0 256 256" fill="none" xmlns="http://www.w3.org/2000/svg" style="font-size: 128px;">
<g id="å•é¢æ€§_10740923140.èœå•" clip-path="url(#clip0_10_18791)">
<g id="Group">
<g id="Group_2">
<g id="Group_3">
<path id="Vector" fill-rule="evenodd" clip-rule="evenodd" d="M0 34.9093C0 28.4827 5.15767 23.2729 11.52 23.2729H244.48C250.842 23.2729 256 28.4827 256 34.9093V58.182C256 64.6087 250.842 69.8184 244.48 69.8184H11.52C5.15767 69.8184 0 64.6087 0 58.182V34.9093Z" fill="#333333"></path>
</g>
<g id="Group_4">
<path id="Vector_2" fill-rule="evenodd" clip-rule="evenodd" d="M0 116.364C0 109.937 5.15767 104.728 11.52 104.728H244.48C250.842 104.728 256 109.937 256 116.364V139.637C256 146.063 250.842 151.273 244.48 151.273H11.52C5.15767 151.273 0 146.063 0 139.637V116.364Z" fill="#333333"></path>
</g>
<g id="Group_5">
<path id="Vector_3" fill-rule="evenodd" clip-rule="evenodd" d="M0 197.818C0 191.392 5.15767 186.182 11.52 186.182H244.48C250.842 186.182 256 191.392 256 197.818V221.091C256 227.517 250.842 232.728 244.48 232.728H11.52C5.15767 232.728 0 227.517 0 221.091V197.818Z" fill="#333333"></path>
</g>
</g>
</g>
</g>
<defs>
<clipPath id="clip0_10_18791">
<rect width="256" height="256" fill="white"></rect>
</clipPath>
</defs>
</svg>