<svg width="128" height="128" viewBox="0 0 256 256" fill="none" xmlns="http://www.w3.org/2000/svg" style="font-size: 128px;">
<g id="å•é¢æ€§_10741062611.ä¿¡ç”¨å¡" clip-path="url(#clip0_11_93976)">
<g id="Group">
<g id="Group_2">
<g id="Group_3">
<path id="Vector" d="M244.195 215.525C12.311 215.525 12.311 215.525 12.311 215.525C6.40843 215.525 0 209.285 0 203.383C0 111.472 0 111.472 0 111.472C256 111.472 256 111.472 256 111.472C256 203.383 256 203.383 256 203.383C256 209.285 250.098 215.525 244.195 215.525ZM24.1159 191.577C71.6732 191.577 71.6732 191.577 71.6732 191.577C71.6732 179.773 71.6732 179.773 71.6732 179.773C24.1159 179.773 24.1159 179.773 24.1159 179.773V191.577ZM143.178 155.994C24.1159 155.994 24.1159 155.994 24.1159 155.994C24.1159 168.136 24.1159 168.136 24.1159 168.136C143.178 168.136 143.178 168.136 143.178 168.136V155.994ZM0 52.2787C0 46.3761 6.40843 40.4736 12.311 40.4736C244.195 40.4736 244.195 40.4736 244.195 40.4736C250.098 40.4736 256 46.3761 256 52.2787C256 88.031 256 88.031 256 88.031C0 88.031 0 88.031 0 88.031V52.2787Z" fill="#333333"></path>
</g>
</g>
</g>
</g>
<defs>
<clipPath id="clip0_11_93976">
<rect width="256" height="256" fill="white"></rect>
</clipPath>
</defs>
</svg>