<?xml version="1.0" encoding="utf-8"?>
<!-- Generator: Adobe Illustrator 21.0.2, SVG Export Plug-In . SVG Version: 6.00 Build 0)  -->
<svg version="1.1" id="Layer_1" xmlns="http://www.w3.org/2000/svg" xmlns:xlink="http://www.w3.org/1999/xlink" x="0px" y="0px"
	 viewBox="0 0 226 123" style="enable-background:new 0 0 226 123;" xml:space="preserve">
<style type="text/css">
	.st0{fill:#231F20;}
	.st1{clip-path:url(#SVGID_2_);fill:#231F20;}
	.st2{fill:none;}
</style>
<rect x="192" y="31.6" transform="matrix(0.8111 -0.5849 0.5849 0.8111 17.8139 122.5882)" class="st0" width="13.4" height="4.2"/>
<g>
	<defs>
		<rect id="SVGID_1_" x="12" y="-0.3" width="200.4" height="108.3"/>
	</defs>
	<clipPath id="SVGID_2_">
		<use xlink:href="#SVGID_1_"  style="overflow:visible;"/>
	</clipPath>
	<path class="st1" d="M200.4,61.3c-4.3,0-7.8-3.5-7.8-7.8c0-4.3,3.5-7.8,7.8-7.8c4.3,0,7.8,3.5,7.8,7.8
		C208.2,57.8,204.7,61.3,200.4,61.3 M172.3,61.3c-4.3,0-7.8-3.5-7.8-7.8c0-4.3,3.5-7.8,7.8-7.8s7.8,3.5,7.8,7.8
		C180.1,57.8,176.6,61.3,172.3,61.3 M136,61.3c-4.3,0-7.8-3.5-7.8-7.8c0-4.3,3.5-7.8,7.8-7.8c4.3,0,7.8,3.5,7.8,7.8
		C143.8,57.8,140.3,61.3,136,61.3 M107.3,61.3c-4.3,0-7.8-3.5-7.8-7.8c0-4.3,3.5-7.8,7.8-7.8c4.3,0,7.8,3.5,7.8,7.8
		C115.1,57.8,111.6,61.3,107.3,61.3 M80.4,61.3c-4.3,0-7.8-3.5-7.8-7.8c0-4.3,3.5-7.8,7.8-7.8c4.3,0,7.8,3.5,7.8,7.8
		C88.2,57.8,84.7,61.3,80.4,61.3 M16.2,43.6c0-10.1,8.2-18.3,18.3-18.3c10.1,0,18.3,8.2,18.3,18.3c0,4.9-1.9,9.3-5,12.6l-2.3,2.1
		c-3.1,2.3-6.8,3.7-10.9,3.7C24.4,61.9,16.2,53.7,16.2,43.6 M200.4,41.5c-3.3,0-6.3,1.4-8.5,3.6l0,0l-7.6,7.6
		c-0.5-6.2-5.6-11.1-12-11.1c-3,0-5.7,1.1-7.8,2.9v-1.9h-4.2v13.6l-4.5,3.2v-14l-3.3-1.7l-6,4c-2.1-3.6-6-6.1-10.4-6.1
		c-3.2,0-6.2,1.3-8.4,3.4v-2.4h-4.2v13.7l-4.1,3.4v-17h-4.2v1.9c-2.1-1.8-4.8-2.9-7.8-2.9c-6.6,0-12,5.4-12,12c0,1,0.1,1.9,0.3,2.8
		l-3.3,3V-0.3h-4.2v44.7c-2.1-1.8-4.8-2.9-7.8-2.9c-6.6,0-12,5.4-12,12c0,1.1,0.2,2.1,0.4,3.1l-3.4,2.8v-14l-3.5-1.6l-5.3,4.7
		c0.3-1.6,0.5-3.2,0.5-4.9c0-12.4-10.1-22.5-22.5-22.5c-7.6,0-14.2,3.8-18.3,9.5v-7.4H12V108h4.2V56.7c4.1,5.7,10.8,9.5,18.3,9.5
		c5,0,9.7-1.7,13.4-4.5l0,0l0.2-0.2c0.8-0.7,1.7-1.4,2.4-2.1l10.6-9.3V64l3.3,1.7l6.2-5.2c2.2,3,5.7,5,9.7,5c3,0,5.7-1.1,7.8-2.9V64
		l3.5,1.6l5.8-5.2c2.2,3.1,5.8,5.2,9.8,5.2c3,0,5.7-1.1,7.8-2.9V64l3.4,1.6l4.8-4V108h4.2V62.1c2.2,2.1,5.1,3.4,8.4,3.4
		c6.6,0,12-5.4,12-12c0-0.6-0.1-1.2-0.1-1.8l3.6-2.4V64l3.3,1.7l5.4-4.3V108h4.2V62.6c2.1,1.8,4.8,2.9,7.8,2.9
		c3.3,0,6.3-1.3,8.5-3.5h0l7.7-7.6c0.4,6.2,5.6,11.1,12,11.1c6.6,0,12-5.4,12-12S207,41.5,200.4,41.5"/>
	<path class="st1" d="M63.3,41c1.6,0,2.8-1.3,2.8-2.8c0-1.6-1.3-2.8-2.8-2.8c-1.6,0-2.8,1.3-2.8,2.8C60.5,39.7,61.7,41,63.3,41"/>
	<path class="st1" d="M153.6,41c1.6,0,2.8-1.3,2.8-2.8c0-1.6-1.3-2.8-2.8-2.8c-1.6,0-2.8,1.3-2.8,2.8C150.8,39.7,152.1,41,153.6,41"
		/>
</g>
<rect id="_x3C_Slice_x3E_" y="-12" class="st2" width="226" height="135"/>
</svg>
