<svg width="128" height="128" viewBox="0 0 256 256" fill="none" xmlns="http://www.w3.org/2000/svg" style="font-size: 128px;">
<g id="å•çº¿å¡«å……_10758971584.è´­ç‰©è½¦" clip-path="url(#clip0_1_88060)">
<g id="Group">
<g id="Group_2">
<path id="Vector" d="M110.692 239.073C97.9683 239.073 87.6123 228.717 87.6123 215.993C87.6123 203.269 97.9683 192.913 110.692 192.913C123.416 192.913 133.772 203.269 133.772 215.993C133.744 228.745 123.388 239.073 110.692 239.073ZM110.692 200.644C102.219 200.644 95.3151 207.548 95.3151 216.022C95.3151 224.495 102.219 231.399 110.692 231.399C119.165 231.399 126.069 224.495 126.069 216.022C126.069 207.548 119.165 200.644 110.692 200.644Z" fill="#333333"></path>
</g>
<g id="Group_3">
<path id="Vector_2" d="M197.991 240.442C185.267 240.442 174.911 230.086 174.911 217.362C174.911 204.638 185.267 194.282 197.991 194.282C210.715 194.282 221.071 204.638 221.071 217.362C221.043 230.115 210.686 240.442 197.991 240.442ZM197.991 202.014C189.518 202.014 182.614 208.918 182.614 217.391C182.614 225.864 189.518 232.768 197.991 232.768C206.464 232.768 213.368 225.864 213.368 217.391C213.368 208.918 206.464 202.014 197.991 202.014Z" fill="#333333"></path>
</g>
<g id="Group_4">
<path id="Vector_3" fill-rule="evenodd" clip-rule="evenodd" d="M98.368 191.002L37.2018 23.194H0V15.4912H42.5938L105.614 188.377L98.368 191.002Z" fill="#333333"></path>
</g>
<g id="Group_5">
<path id="Vector_4" fill-rule="evenodd" clip-rule="evenodd" d="M217.333 172.629H96.8555V164.955H212.255L244.322 89.2671H65.2168V81.5928H255.933L217.333 172.629Z" fill="#333333"></path>
</g>
<g id="Group_6">
<path id="Vector_5" d="M168.406 211.2H138.08V218.903H168.406V211.2Z" fill="#333333"></path>
</g>
</g>
</g>
<defs>
<clipPath id="clip0_1_88060">
<rect width="256" height="256" fill="white"></rect>
</clipPath>
</defs>
</svg>