<svg width="128" height="128" viewBox="0 0 256 256" fill="none" xmlns="http://www.w3.org/2000/svg" style="font-size: 128px;">
<g id="å•é¢æ€§_10741812716.çº¢å¿ƒ" clip-path="url(#clip0_11_132023)">
<g id="Group">
<g id="Group_2">
<g id="Group_3">
<path id="Vector" d="M241.346 40.67C241.346 40.67 316.239 112.49 127.406 240.128V240.64C127.278 240.512 127.15 240.512 127.022 240.384C126.894 240.384 126.894 240.512 126.766 240.512V240.256C-60.1455 108.522 14.8753 39.5178 14.8753 39.5178C64.5477 -12.459 121.389 34.781 127.534 40.2859C127.534 40.926 188.857 -15.4036 241.346 40.67ZM211.517 66.1463C172.982 24.0272 128.047 65.7623 128.047 65.7623C123.566 61.6656 81.9587 26.3316 45.4725 65.2502C45.4725 65.2502 -9.57689 117.099 127.662 215.804V216.06L127.791 215.932C127.919 215.932 127.919 216.06 128.047 216.06V215.676C266.566 120.044 211.517 66.1463 211.517 66.1463ZM191.033 85.6057C191.033 85.6057 232.64 125.036 127.791 195.32V195.576C127.662 195.576 127.662 195.448 127.534 195.448C127.534 195.448 127.406 195.448 127.406 195.576V195.448C23.4527 122.988 65.1879 84.9656 65.1879 84.9656C92.8406 56.4167 124.334 82.4051 127.791 85.3496C127.791 85.3496 161.844 54.7524 191.033 85.6057Z" fill="#333333"></path>
</g>
</g>
</g>
</g>
<defs>
<clipPath id="clip0_11_132023">
<rect width="256" height="256" fill="white"></rect>
</clipPath>
</defs>
</svg>