<svg width="128" height="128" viewBox="0 0 256 256" fill="none" xmlns="http://www.w3.org/2000/svg" style="font-size: 128px;">
<g id="å•çº¿å¡«å……_10758971716.è´­ç‰©è¢‹" clip-path="url(#clip0_1_89109)">
<g id="Group">
<g id="Group_2">
<path id="Vector" fill-rule="evenodd" clip-rule="evenodd" d="M226.479 255.933H29.4541L36.4705 66.5391H68.9217V73.4693H43.1509L36.6486 249H219.104L208.241 73.4693H180.684V66.5391H214.758L226.479 255.933Z" fill="#333333"></path>
</g>
<g id="Group_3">
<path id="Vector_2" d="M156.772 66.5391H96.4702V73.4693H156.772V66.5391Z" fill="#333333"></path>
</g>
<g id="Group_4">
<path id="Vector_3" d="M96.4733 90.4521H73.0806V97.3824H96.4733V90.4521Z" fill="#333333"></path>
</g>
<g id="Group_5">
<path id="Vector_4" d="M180.164 90.4521H156.771V97.3824H180.164V90.4521Z" fill="#333333"></path>
</g>
<g id="Group_6">
<path id="Vector_5" d="M175.816 93.9157H168.886V47.2537C168.886 25.0241 150.798 6.93023 128.562 6.93023C106.327 6.93023 88.2417 25.0241 88.2417 47.2537V93.9157H81.3086V47.2537C81.3086 21.1985 102.507 0 128.562 0C154.617 0 175.816 21.1985 175.816 47.2537V93.9157Z" fill="#333333"></path>
</g>
<g id="Group_7">
<path id="Vector_6" d="M160.238 61.1662H153.308V50.5109C153.289 37.0741 142.399 26.1876 128.962 26.1732H127.922C114.482 26.1876 103.59 37.0792 103.576 50.5195V58.0529H96.6455V50.5109C96.6613 33.2439 110.655 19.2502 127.922 19.2344H128.962C146.229 19.2502 160.222 33.2439 160.238 50.5109V61.1662Z" fill="#333333"></path>
</g>
</g>
</g>
<defs>
<clipPath id="clip0_1_89109">
<rect width="256" height="256" fill="white"></rect>
</clipPath>
</defs>
</svg>